<?xml version="1.0" encoding="utf-8"?>
<!-- Generator: Adobe Illustrator 19.2.0, SVG Export Plug-In . SVG Version: 6.00 Build 0)  -->
<svg version="1.1" id="Layer_1" xmlns="http://www.w3.org/2000/svg" xmlns:xlink="http://www.w3.org/1999/xlink" x="0px" y="0px"
	 viewBox="0 0 67 93" style="enable-background:new 0 0 67 93;" xml:space="preserve">
<style type="text/css">
	.st0{fill:#07B5DD;}
	.st1{fill:#FFFFFF;}
</style>
<rect x="0" y="0.3" class="st0" width="67" height="93"/>
<g>
	<g>
		<g>
			<path class="st1" d="M31.3,34.2c5.2,0,7.1-5.3,7.6-9.6c0.6-5.3-1.9-9.3-7.6-9.3c-5.7,0-8.2,4-7.6,9.3
				C24.1,28.9,26,34.2,31.3,34.2z"/>
			<path class="st1" d="M42.7,36.3c0.2,0,0.3,0,0.5,0c-0.2-0.4-0.5-0.7-0.9-0.9c-1-0.8-2.3-1-3.5-1.5c-0.6-0.2-1.1-0.4-1.5-0.7
				C35.8,35,33.7,36,31.3,36c-2.4,0-4.5-0.9-6.1-2.7c-0.5,0.2-1,0.5-1.5,0.7c-1.2,0.5-2.5,0.7-3.5,1.5c-1.7,1.3-2.2,4.2-2.5,6.2
				c-0.3,1.6-0.5,3.3-0.5,5c0,1.3,0.6,1.5,1.7,1.9c1.4,0.5,2.8,0.9,4.2,1.2c2.7,0.6,5.5,1,8.3,1c1.4,0,2.7-0.1,4.1-0.3
				c-1-1.4-1.6-3.2-1.6-5.1C33.7,40.4,37.8,36.3,42.7,36.3z"/>
			<path class="st1" d="M42.7,38.1c-4,0-7.2,3.2-7.2,7.2s3.2,7.2,7.2,7.2s7.2-3.2,7.2-7.2C49.9,41.4,46.7,38.1,42.7,38.1z
				 M45.9,46.6H44v1.9c0,0.7-0.6,1.2-1.2,1.2c-0.7,0-1.2-0.6-1.2-1.2v-1.9h-1.9c-0.7,0-1.2-0.6-1.2-1.2c0-0.7,0.6-1.2,1.2-1.2h1.9
				v-1.9c0-0.7,0.6-1.2,1.2-1.2c0.7,0,1.2,0.6,1.2,1.2v1.9h1.9c0.7,0,1.2,0.6,1.2,1.2C47.1,46,46.6,46.6,45.9,46.6z"/>
		</g>
	</g>
	<g>
		<path class="st1" d="M14.1,65.5V58h3.9v1.1h-2.5v1.9h2.3V62h-2.3v2.3h2.5v1.1H14.1z"/>
		<path class="st1" d="M22,60.2c0-0.7,0-1.3-0.8-1.3c-0.5,0-0.8,0.2-0.8,0.7c0,0.6,0.4,0.8,0.8,1.1c0.5,0.3,1.3,0.8,1.7,1.2
			c0.5,0.5,0.6,0.9,0.6,1.6c0,1.4-0.9,2.2-2.3,2.2c-1.7,0-2.3-0.9-2.3-2.3v-0.5h1.4v0.4c0,0.7,0.2,1.3,0.9,1.3
			c0.6,0,0.9-0.3,0.9-0.9c0-0.4-0.2-0.7-0.6-1c-0.7-0.6-1.6-1-2.2-1.7c-0.2-0.3-0.4-0.7-0.4-1.1c0-1.3,0.7-2,2.2-2
			c2.2,0,2.2,1.7,2.2,2.5H22z"/>
		<path class="st1" d="M24.2,58h4.7v1.1h-1.6v6.4h-1.4v-6.4h-1.6V58z"/>
		<path class="st1" d="M28.6,65.5l1.8-7.5h1.9l1.7,7.5h-1.5l-0.4-1.9h-1.6l-0.4,1.9H28.6z M30.7,62.5h1.2l-0.4-2.1
			c-0.1-0.3-0.1-0.7-0.1-1c0-0.2,0-0.3,0-0.5h0c0,0.2,0,0.3-0.1,0.5c0,0.4-0.1,0.7-0.1,1L30.7,62.5z"/>
		<path class="st1" d="M36.1,65.5h-1.4V58H37l0.8,3.5c0.1,0.6,0.2,1.1,0.3,1.7h0c0.1-0.7,0.1-1.2,0.2-1.7L39,58h2.2v7.5h-1.4v-2.4
			c0-1.5,0-3,0.1-4.5h0l-1.5,6.8h-0.8l-1.5-6.8h0c0.1,1.5,0.1,3,0.1,4.5V65.5z"/>
		<path class="st1" d="M42.4,61.1c0.1-1.9,0.2-3.3,2.4-3.3c2.2,0,2.4,1.4,2.4,3.3v1.1c0,2-0.1,3.5-2.4,3.5s-2.4-1.5-2.4-3.5V61.1z
			 M43.9,62.9c0,0.6,0,1.6,1,1.6c1,0,1-1,1-1.7v-1.9c0-0.6,0-1.9-1-1.9c-1.1,0-1,1.3-1,1.9V62.9z"/>
		<path class="st1" d="M51.5,60.2c0-0.7,0-1.3-0.8-1.3c-0.5,0-0.8,0.2-0.8,0.7c0,0.6,0.4,0.8,0.8,1.1c0.5,0.3,1.3,0.8,1.7,1.2
			c0.5,0.5,0.6,0.9,0.6,1.6c0,1.4-0.9,2.2-2.3,2.2c-1.7,0-2.3-0.9-2.3-2.3v-0.5h1.4v0.4c0,0.7,0.2,1.3,0.9,1.3
			c0.6,0,0.9-0.3,0.9-0.9c0-0.4-0.2-0.7-0.6-1c-0.7-0.6-1.6-1-2.2-1.7c-0.2-0.3-0.4-0.7-0.4-1.1c0-1.3,0.7-2,2.2-2
			c2.2,0,2.2,1.7,2.2,2.5H51.5z"/>
	</g>
	<g>
		<path class="st1" d="M7.5,73.1c0,0.1,0,0.3,0,0.4c-0.1,1.4-0.5,2.4-2.1,2.4c-2.3,0-2.4-1.5-2.4-3.5v-1.1c0.1-1.9,0.2-3.3,2.4-3.3
			c1.2,0,1.9,0.7,2,1.9c0,0.2,0,0.4,0,0.6H6.1c-0.1-0.5,0-1.4-0.7-1.4c-1.1,0-1,1.3-1,1.9v2.1c0,0.6,0.1,1.6,1,1.6
			c0.8,0,0.7-1.2,0.7-1.7H7.5z"/>
		<path class="st1" d="M8.5,71.4c0.1-1.9,0.2-3.3,2.4-3.3s2.4,1.4,2.4,3.3v1.1c0,2-0.1,3.5-2.4,3.5c-2.3,0-2.4-1.5-2.4-3.5V71.4z
			 M10,73.2c0,0.6,0,1.6,1,1.6c1,0,1-1,1-1.7v-1.9c0-0.6,0-1.9-1-1.9c-1.1,0-1,1.3-1,1.9V73.2z"/>
		<path class="st1" d="M18.1,68.3h1.4v7.5H18l-1.1-2.7c-0.4-0.9-0.7-1.8-1-3h0c0.1,0.6,0.1,1.4,0.1,2.1c0,0.7,0.1,1.5,0.1,2.1v1.4
			h-1.4v-7.5h1.4l1.1,2.7c0.4,0.9,0.7,1.8,1,3h0c-0.1-0.7-0.1-1.4-0.1-2.1s-0.1-1.4-0.1-2.1V68.3z"/>
		<path class="st1" d="M20.3,68.3H25v1.1h-1.6v6.4H22v-6.4h-1.6V68.3z"/>
		<path class="st1" d="M27.2,72.5v3.2h-1.4v-7.5h2.6c1.2,0,2.1,0.4,2.1,1.8c0,0.8-0.2,1.7-1.1,1.8v0c0.8,0.1,1.1,0.6,1.1,1.4
			c0,0.3,0,2.1,0.3,2.4v0.1h-1.5c-0.2-0.5-0.1-1.4-0.1-1.9c0-0.5,0-1.1-0.5-1.2c-0.4-0.1-0.8-0.1-1.2-0.1H27.2z M27.2,71.4h1.1
			c0.5,0,0.8-0.3,0.8-1.1c0-0.8-0.4-1-0.9-1h-1V71.4z"/>
		<path class="st1" d="M31.4,75.8l1.8-7.5H35l1.7,7.5h-1.5l-0.4-1.9h-1.6l-0.4,1.9H31.4z M33.4,72.8h1.2l-0.4-2.1
			c-0.1-0.3-0.1-0.7-0.1-1c0-0.2,0-0.3,0-0.5h0c0,0.2,0,0.3-0.1,0.5c0,0.4-0.1,0.7-0.1,1L33.4,72.8z"/>
		<path class="st1" d="M36.5,68.3h4.7v1.1h-1.6v6.4h-1.4v-6.4h-1.6V68.3z"/>
		<path class="st1" d="M40.8,75.8l1.8-7.5h1.9l1.7,7.5h-1.5l-0.4-1.9h-1.6l-0.4,1.9H40.8z M42.9,72.8h1.2l-0.4-2.1
			c-0.1-0.3-0.1-0.7-0.1-1c0-0.2,0-0.3,0-0.5h0c0,0.2,0,0.3,0,0.5c0,0.4-0.1,0.7-0.1,1L42.9,72.8z"/>
		<path class="st1" d="M50.3,68.3h1.4v7.5h-1.5l-1.1-2.7c-0.4-0.9-0.7-1.8-1-3h0c0,0.6,0.1,1.4,0.1,2.1c0,0.7,0.1,1.5,0.1,2.1v1.4
			H47v-7.5h1.4l1.1,2.7c0.4,0.9,0.7,1.8,1,3h0c0-0.7-0.1-1.4-0.1-2.1s-0.1-1.4-0.1-2.1V68.3z"/>
		<path class="st1" d="M53.1,75.8v-7.5H56c0.3,0,1,0.2,1.4,0.8c0.3,0.5,0.4,1.3,0.4,2.6c0,1.5,0,3.2-1.1,3.9c-0.3,0.2-0.7,0.2-1,0.2
			H53.1z M55.1,74.7c1.2,0,1.3-0.7,1.3-2.8c0-1.8-0.2-2.5-1-2.5h-0.9v5.3H55.1z"/>
		<path class="st1" d="M59.1,71.4c0.1-1.9,0.2-3.3,2.4-3.3c2.2,0,2.4,1.4,2.4,3.3v1.1c0,2-0.1,3.5-2.4,3.5s-2.4-1.5-2.4-3.5V71.4z
			 M60.6,73.2c0,0.6,0,1.6,1,1.6c1,0,1-1,1-1.7v-1.9c0-0.6,0-1.9-1-1.9c-1.1,0-1,1.3-1,1.9V73.2z"/>
	</g>
</g>
</svg>
